# xmcd CD database file generated by Grip 2.95
# 
# Track frame offsets:
#       182
#       13445
#       27447
#       39937
#       52177
#       68310
#       83020
#       96330
#       108650
#       122832
#       135110
#       149145
#       163817
#       177437
#       189520
#       201855
#       215975
#       230622
# 
# Disc length: 3280 seconds
# 
# Revision: 3
# Processed by: cddbd v1.4b41PL1 Copyright (c) Steve Scherf et al.
# Submitted via: Grip 2.95
# 
DISCID=0f0cce12
DTITLE=Billie Holiday - Billie's Blues
DYEAR=1900
DGENRE=
TTITLE0=One, Two, button my shoe
TTITLE1=Let's call a heart a heart
TTITLE2=Billie's blues
TTITLE3=No regrets
TTITLE4=I can't give you anything but love
TTITLE5=This year's kisses
TTITLE6=He ain't got rhythm
TTITLE7=Let's call the whole thing off
TTITLE8=They can't take that away from me
TTITLE9=Sentimental and melancholy
TTITLE10=The way you look tonight
TTITLE11=I'll get by
TTITLE12=Summertime
TTITLE13=Who wants love
TTITLE14=He's funny that way
TTITLE15=Now they call it swing
TTITLE16=Nice work if you can get it
TTITLE17=Things are looking up
EXTD=
EXTT0=
EXTT1=
EXTT2=
EXTT3=
EXTT4=
EXTT5=
EXTT6=
EXTT7=
EXTT8=
EXTT9=
EXTT10=
EXTT11=
EXTT12=
EXTT13=
EXTT14=
EXTT15=
EXTT16=
EXTT17=
PLAYORDER=
